<?xml version="1.0" encoding="UTF-8" standalone="no"?>
<!-- Created with Inkscape (http://www.inkscape.org/) -->

<svg
   xmlns:dc="http://purl.org/dc/elements/1.1/"
   xmlns:cc="http://creativecommons.org/ns#"
   xmlns:rdf="http://www.w3.org/1999/02/22-rdf-syntax-ns#"
   xmlns:svg="http://www.w3.org/2000/svg"
   xmlns="http://www.w3.org/2000/svg"
   xmlns:sodipodi="http://sodipodi.sourceforge.net/DTD/sodipodi-0.dtd"
   xmlns:inkscape="http://www.inkscape.org/namespaces/inkscape"
   version="1.1"
   id="svg2"
   xml:space="preserve"
   width="441.96234"
   height="421.48416"
   viewBox="0 0 441.96234 421.48416"
   sodipodi:docname="PVessel.svg"
   inkscape:version="0.92.5 (2060ec1f9f, 2020-04-08)"><metadata
     id="metadata8"><rdf:RDF><cc:Work
         rdf:about=""><dc:format>image/svg+xml</dc:format><dc:type
           rdf:resource="http://purl.org/dc/dcmitype/StillImage" /><dc:title></dc:title></cc:Work></rdf:RDF></metadata><defs
     id="defs6"><marker
       inkscape:stockid="Arrow2Mend"
       orient="auto"
       refY="0.0"
       refX="0.0"
       id="marker7398"
       style="overflow:visible;"
       inkscape:isstock="true"><path
         id="path7396"
         style="fill-rule:evenodd;stroke-width:0.625;stroke-linejoin:round;stroke:#000000;stroke-opacity:1;fill:#000000;fill-opacity:1"
         d="M 8.7185878,4.0337352 L -2.2072895,0.016013256 L 8.7185884,-4.0017078 C 6.9730900,-1.6296469 6.9831476,1.6157441 8.7185878,4.0337352 z "
         transform="scale(0.6) rotate(180) translate(0,0)" /></marker><marker
       inkscape:stockid="Arrow2Mend"
       orient="auto"
       refY="0.0"
       refX="0.0"
       id="marker7154"
       style="overflow:visible;"
       inkscape:isstock="true"><path
         id="path7152"
         style="fill-rule:evenodd;stroke-width:0.625;stroke-linejoin:round;stroke:#000000;stroke-opacity:1;fill:#000000;fill-opacity:1"
         d="M 8.7185878,4.0337352 L -2.2072895,0.016013256 L 8.7185884,-4.0017078 C 6.9730900,-1.6296469 6.9831476,1.6157441 8.7185878,4.0337352 z "
         transform="scale(0.6) rotate(180) translate(0,0)" /></marker><marker
       inkscape:stockid="Arrow2Mend"
       orient="auto"
       refY="0.0"
       refX="0.0"
       id="marker6916"
       style="overflow:visible;"
       inkscape:isstock="true"><path
         id="path6914"
         style="fill-rule:evenodd;stroke-width:0.625;stroke-linejoin:round;stroke:#000000;stroke-opacity:1;fill:#000000;fill-opacity:1"
         d="M 8.7185878,4.0337352 L -2.2072895,0.016013256 L 8.7185884,-4.0017078 C 6.9730900,-1.6296469 6.9831476,1.6157441 8.7185878,4.0337352 z "
         transform="scale(0.6) rotate(180) translate(0,0)" /></marker><marker
       inkscape:stockid="Arrow2Mend"
       orient="auto"
       refY="0.0"
       refX="0.0"
       id="marker6684"
       style="overflow:visible;"
       inkscape:isstock="true"><path
         id="path6682"
         style="fill-rule:evenodd;stroke-width:0.625;stroke-linejoin:round;stroke:#000000;stroke-opacity:1;fill:#000000;fill-opacity:1"
         d="M 8.7185878,4.0337352 L -2.2072895,0.016013256 L 8.7185884,-4.0017078 C 6.9730900,-1.6296469 6.9831476,1.6157441 8.7185878,4.0337352 z "
         transform="scale(0.6) rotate(180) translate(0,0)" /></marker><marker
       inkscape:stockid="Arrow2Mend"
       orient="auto"
       refY="0.0"
       refX="0.0"
       id="marker6458"
       style="overflow:visible;"
       inkscape:isstock="true"><path
         id="path6456"
         style="fill-rule:evenodd;stroke-width:0.625;stroke-linejoin:round;stroke:#000000;stroke-opacity:1;fill:#000000;fill-opacity:1"
         d="M 8.7185878,4.0337352 L -2.2072895,0.016013256 L 8.7185884,-4.0017078 C 6.9730900,-1.6296469 6.9831476,1.6157441 8.7185878,4.0337352 z "
         transform="scale(0.6) rotate(180) translate(0,0)" /></marker><marker
       inkscape:stockid="Arrow2Mend"
       orient="auto"
       refY="0.0"
       refX="0.0"
       id="marker6238"
       style="overflow:visible;"
       inkscape:isstock="true"><path
         id="path6236"
         style="fill-rule:evenodd;stroke-width:0.625;stroke-linejoin:round;stroke:#000000;stroke-opacity:1;fill:#000000;fill-opacity:1"
         d="M 8.7185878,4.0337352 L -2.2072895,0.016013256 L 8.7185884,-4.0017078 C 6.9730900,-1.6296469 6.9831476,1.6157441 8.7185878,4.0337352 z "
         transform="scale(0.6) rotate(180) translate(0,0)" /></marker><marker
       inkscape:stockid="Arrow2Mend"
       orient="auto"
       refY="0.0"
       refX="0.0"
       id="marker6024"
       style="overflow:visible;"
       inkscape:isstock="true"><path
         id="path6022"
         style="fill-rule:evenodd;stroke-width:0.625;stroke-linejoin:round;stroke:#000000;stroke-opacity:1;fill:#000000;fill-opacity:1"
         d="M 8.7185878,4.0337352 L -2.2072895,0.016013256 L 8.7185884,-4.0017078 C 6.9730900,-1.6296469 6.9831476,1.6157441 8.7185878,4.0337352 z "
         transform="scale(0.6) rotate(180) translate(0,0)" /></marker><marker
       inkscape:stockid="Arrow2Mend"
       orient="auto"
       refY="0.0"
       refX="0.0"
       id="marker5816"
       style="overflow:visible;"
       inkscape:isstock="true"><path
         id="path5814"
         style="fill-rule:evenodd;stroke-width:0.625;stroke-linejoin:round;stroke:#000000;stroke-opacity:1;fill:#000000;fill-opacity:1"
         d="M 8.7185878,4.0337352 L -2.2072895,0.016013256 L 8.7185884,-4.0017078 C 6.9730900,-1.6296469 6.9831476,1.6157441 8.7185878,4.0337352 z "
         transform="scale(0.6) rotate(180) translate(0,0)" /></marker><marker
       inkscape:stockid="Arrow2Mend"
       orient="auto"
       refY="0.0"
       refX="0.0"
       id="marker5614"
       style="overflow:visible;"
       inkscape:isstock="true"><path
         id="path5612"
         style="fill-rule:evenodd;stroke-width:0.625;stroke-linejoin:round;stroke:#000000;stroke-opacity:1;fill:#000000;fill-opacity:1"
         d="M 8.7185878,4.0337352 L -2.2072895,0.016013256 L 8.7185884,-4.0017078 C 6.9730900,-1.6296469 6.9831476,1.6157441 8.7185878,4.0337352 z "
         transform="scale(0.6) rotate(180) translate(0,0)" /></marker><marker
       inkscape:isstock="true"
       style="overflow:visible;"
       id="marker4398"
       refX="0.0"
       refY="0.0"
       orient="auto"
       inkscape:stockid="Arrow2Mend"
       inkscape:collect="always"><path
         transform="scale(0.6) rotate(180) translate(0,0)"
         d="M 8.7185878,4.0337352 L -2.2072895,0.016013256 L 8.7185884,-4.0017078 C 6.9730900,-1.6296469 6.9831476,1.6157441 8.7185878,4.0337352 z "
         style="fill-rule:evenodd;stroke-width:0.625;stroke-linejoin:round;stroke:#000000;stroke-opacity:1;fill:#000000;fill-opacity:1"
         id="path4396" /></marker><marker
       inkscape:isstock="true"
       style="overflow:visible;"
       id="marker4208"
       refX="0.0"
       refY="0.0"
       orient="auto"
       inkscape:stockid="Arrow2Mend"><path
         transform="scale(0.6) rotate(180) translate(0,0)"
         d="M 8.7185878,4.0337352 L -2.2072895,0.016013256 L 8.7185884,-4.0017078 C 6.9730900,-1.6296469 6.9831476,1.6157441 8.7185878,4.0337352 z "
         style="fill-rule:evenodd;stroke-width:0.625;stroke-linejoin:round;stroke:#000000;stroke-opacity:1;fill:#000000;fill-opacity:1"
         id="path4206" /></marker><marker
       inkscape:isstock="true"
       style="overflow:visible;"
       id="marker4024"
       refX="0.0"
       refY="0.0"
       orient="auto"
       inkscape:stockid="Arrow2Mend"><path
         transform="scale(0.6) rotate(180) translate(0,0)"
         d="M 8.7185878,4.0337352 L -2.2072895,0.016013256 L 8.7185884,-4.0017078 C 6.9730900,-1.6296469 6.9831476,1.6157441 8.7185878,4.0337352 z "
         style="fill-rule:evenodd;stroke-width:0.625;stroke-linejoin:round;stroke:#000000;stroke-opacity:1;fill:#000000;fill-opacity:1"
         id="path4022" /></marker><marker
       inkscape:isstock="true"
       style="overflow:visible;"
       id="marker3846"
       refX="0.0"
       refY="0.0"
       orient="auto"
       inkscape:stockid="Arrow2Mend"><path
         transform="scale(0.6) rotate(180) translate(0,0)"
         d="M 8.7185878,4.0337352 L -2.2072895,0.016013256 L 8.7185884,-4.0017078 C 6.9730900,-1.6296469 6.9831476,1.6157441 8.7185878,4.0337352 z "
         style="fill-rule:evenodd;stroke-width:0.625;stroke-linejoin:round;stroke:#000000;stroke-opacity:1;fill:#000000;fill-opacity:1"
         id="path3844" /></marker><marker
       inkscape:isstock="true"
       style="overflow:visible;"
       id="marker3674"
       refX="0.0"
       refY="0.0"
       orient="auto"
       inkscape:stockid="Arrow2Mend"><path
         transform="scale(0.6) rotate(180) translate(0,0)"
         d="M 8.7185878,4.0337352 L -2.2072895,0.016013256 L 8.7185884,-4.0017078 C 6.9730900,-1.6296469 6.9831476,1.6157441 8.7185878,4.0337352 z "
         style="fill-rule:evenodd;stroke-width:0.625;stroke-linejoin:round;stroke:#000000;stroke-opacity:1;fill:#000000;fill-opacity:1"
         id="path3672" /></marker><marker
       inkscape:isstock="true"
       style="overflow:visible;"
       id="marker3508"
       refX="0.0"
       refY="0.0"
       orient="auto"
       inkscape:stockid="Arrow2Mend"><path
         transform="scale(0.6) rotate(180) translate(0,0)"
         d="M 8.7185878,4.0337352 L -2.2072895,0.016013256 L 8.7185884,-4.0017078 C 6.9730900,-1.6296469 6.9831476,1.6157441 8.7185878,4.0337352 z "
         style="fill-rule:evenodd;stroke-width:0.625;stroke-linejoin:round;stroke:#000000;stroke-opacity:1;fill:#000000;fill-opacity:1"
         id="path3506" /></marker><marker
       inkscape:isstock="true"
       style="overflow:visible;"
       id="marker3348"
       refX="0.0"
       refY="0.0"
       orient="auto"
       inkscape:stockid="Arrow2Mend"><path
         transform="scale(0.6) rotate(180) translate(0,0)"
         d="M 8.7185878,4.0337352 L -2.2072895,0.016013256 L 8.7185884,-4.0017078 C 6.9730900,-1.6296469 6.9831476,1.6157441 8.7185878,4.0337352 z "
         style="fill-rule:evenodd;stroke-width:0.625;stroke-linejoin:round;stroke:#000000;stroke-opacity:1;fill:#000000;fill-opacity:1"
         id="path3346" /></marker><marker
       inkscape:isstock="true"
       style="overflow:visible;"
       id="marker3194"
       refX="0.0"
       refY="0.0"
       orient="auto"
       inkscape:stockid="Arrow2Mend"><path
         transform="scale(0.6) rotate(180) translate(0,0)"
         d="M 8.7185878,4.0337352 L -2.2072895,0.016013256 L 8.7185884,-4.0017078 C 6.9730900,-1.6296469 6.9831476,1.6157441 8.7185878,4.0337352 z "
         style="fill-rule:evenodd;stroke-width:0.625;stroke-linejoin:round;stroke:#000000;stroke-opacity:1;fill:#000000;fill-opacity:1"
         id="path3192" /></marker><marker
       inkscape:isstock="true"
       style="overflow:visible;"
       id="marker3046"
       refX="0.0"
       refY="0.0"
       orient="auto"
       inkscape:stockid="Arrow2Mend"><path
         transform="scale(0.6) rotate(180) translate(0,0)"
         d="M 8.7185878,4.0337352 L -2.2072895,0.016013256 L 8.7185884,-4.0017078 C 6.9730900,-1.6296469 6.9831476,1.6157441 8.7185878,4.0337352 z "
         style="fill-rule:evenodd;stroke-width:0.625;stroke-linejoin:round;stroke:#000000;stroke-opacity:1;fill:#000000;fill-opacity:1"
         id="path3044" /></marker><marker
       inkscape:stockid="Arrow2Mend"
       orient="auto"
       refY="0.0"
       refX="0.0"
       id="marker2892"
       style="overflow:visible;"
       inkscape:isstock="true"
       inkscape:collect="always"><path
         id="path2890"
         style="fill-rule:evenodd;stroke-width:0.625;stroke-linejoin:round;stroke:#000000;stroke-opacity:1;fill:#000000;fill-opacity:1"
         d="M 8.7185878,4.0337352 L -2.2072895,0.016013256 L 8.7185884,-4.0017078 C 6.9730900,-1.6296469 6.9831476,1.6157441 8.7185878,4.0337352 z "
         transform="scale(0.6) rotate(180) translate(0,0)" /></marker><marker
       inkscape:stockid="Arrow2Mend"
       orient="auto"
       refY="0.0"
       refX="0.0"
       id="marker2756"
       style="overflow:visible;"
       inkscape:isstock="true"><path
         id="path2754"
         style="fill-rule:evenodd;stroke-width:0.625;stroke-linejoin:round;stroke:#000000;stroke-opacity:1;fill:#000000;fill-opacity:1"
         d="M 8.7185878,4.0337352 L -2.2072895,0.016013256 L 8.7185884,-4.0017078 C 6.9730900,-1.6296469 6.9831476,1.6157441 8.7185878,4.0337352 z "
         transform="scale(0.6) rotate(180) translate(0,0)" /></marker><marker
       inkscape:stockid="Arrow2Mend"
       orient="auto"
       refY="0.0"
       refX="0.0"
       id="marker2626"
       style="overflow:visible;"
       inkscape:isstock="true"><path
         id="path2624"
         style="fill-rule:evenodd;stroke-width:0.625;stroke-linejoin:round;stroke:#000000;stroke-opacity:1;fill:#000000;fill-opacity:1"
         d="M 8.7185878,4.0337352 L -2.2072895,0.016013256 L 8.7185884,-4.0017078 C 6.9730900,-1.6296469 6.9831476,1.6157441 8.7185878,4.0337352 z "
         transform="scale(0.6) rotate(180) translate(0,0)" /></marker><marker
       inkscape:stockid="Arrow2Mend"
       orient="auto"
       refY="0.0"
       refX="0.0"
       id="marker2502"
       style="overflow:visible;"
       inkscape:isstock="true"><path
         id="path2500"
         style="fill-rule:evenodd;stroke-width:0.625;stroke-linejoin:round;stroke:#000000;stroke-opacity:1;fill:#000000;fill-opacity:1"
         d="M 8.7185878,4.0337352 L -2.2072895,0.016013256 L 8.7185884,-4.0017078 C 6.9730900,-1.6296469 6.9831476,1.6157441 8.7185878,4.0337352 z "
         transform="scale(0.6) rotate(180) translate(0,0)" /></marker><marker
       inkscape:stockid="Arrow2Mend"
       orient="auto"
       refY="0.0"
       refX="0.0"
       id="marker2384"
       style="overflow:visible;"
       inkscape:isstock="true"><path
         id="path2382"
         style="fill-rule:evenodd;stroke-width:0.625;stroke-linejoin:round;stroke:#000000;stroke-opacity:1;fill:#000000;fill-opacity:1"
         d="M 8.7185878,4.0337352 L -2.2072895,0.016013256 L 8.7185884,-4.0017078 C 6.9730900,-1.6296469 6.9831476,1.6157441 8.7185878,4.0337352 z "
         transform="scale(0.6) rotate(180) translate(0,0)" /></marker><marker
       inkscape:stockid="Arrow2Mend"
       orient="auto"
       refY="0.0"
       refX="0.0"
       id="marker2272"
       style="overflow:visible;"
       inkscape:isstock="true"><path
         id="path2270"
         style="fill-rule:evenodd;stroke-width:0.625;stroke-linejoin:round;stroke:#000000;stroke-opacity:1;fill:#000000;fill-opacity:1"
         d="M 8.7185878,4.0337352 L -2.2072895,0.016013256 L 8.7185884,-4.0017078 C 6.9730900,-1.6296469 6.9831476,1.6157441 8.7185878,4.0337352 z "
         transform="scale(0.6) rotate(180) translate(0,0)" /></marker><marker
       inkscape:stockid="Arrow2Mend"
       orient="auto"
       refY="0.0"
       refX="0.0"
       id="marker2166"
       style="overflow:visible;"
       inkscape:isstock="true"><path
         id="path2164"
         style="fill-rule:evenodd;stroke-width:0.625;stroke-linejoin:round;stroke:#000000;stroke-opacity:1;fill:#000000;fill-opacity:1"
         d="M 8.7185878,4.0337352 L -2.2072895,0.016013256 L 8.7185884,-4.0017078 C 6.9730900,-1.6296469 6.9831476,1.6157441 8.7185878,4.0337352 z "
         transform="scale(0.6) rotate(180) translate(0,0)" /></marker><marker
       inkscape:stockid="Arrow2Mend"
       orient="auto"
       refY="0.0"
       refX="0.0"
       id="marker2066"
       style="overflow:visible;"
       inkscape:isstock="true"><path
         id="path2064"
         style="fill-rule:evenodd;stroke-width:0.625;stroke-linejoin:round;stroke:#000000;stroke-opacity:1;fill:#000000;fill-opacity:1"
         d="M 8.7185878,4.0337352 L -2.2072895,0.016013256 L 8.7185884,-4.0017078 C 6.9730900,-1.6296469 6.9831476,1.6157441 8.7185878,4.0337352 z "
         transform="scale(0.6) rotate(180) translate(0,0)" /></marker><marker
       inkscape:stockid="Arrow2Mend"
       orient="auto"
       refY="0.0"
       refX="0.0"
       id="marker1972"
       style="overflow:visible;"
       inkscape:isstock="true"><path
         id="path1970"
         style="fill-rule:evenodd;stroke-width:0.625;stroke-linejoin:round;stroke:#000000;stroke-opacity:1;fill:#000000;fill-opacity:1"
         d="M 8.7185878,4.0337352 L -2.2072895,0.016013256 L 8.7185884,-4.0017078 C 6.9730900,-1.6296469 6.9831476,1.6157441 8.7185878,4.0337352 z "
         transform="scale(0.6) rotate(180) translate(0,0)" /></marker><marker
       inkscape:stockid="Arrow2Mend"
       orient="auto"
       refY="0.0"
       refX="0.0"
       id="marker1884"
       style="overflow:visible;"
       inkscape:isstock="true"><path
         id="path1882"
         style="fill-rule:evenodd;stroke-width:0.625;stroke-linejoin:round;stroke:#000000;stroke-opacity:1;fill:#000000;fill-opacity:1"
         d="M 8.7185878,4.0337352 L -2.2072895,0.016013256 L 8.7185884,-4.0017078 C 6.9730900,-1.6296469 6.9831476,1.6157441 8.7185878,4.0337352 z "
         transform="scale(0.6) rotate(180) translate(0,0)" /></marker><marker
       inkscape:stockid="Arrow2Mend"
       orient="auto"
       refY="0.0"
       refX="0.0"
       id="marker1802"
       style="overflow:visible;"
       inkscape:isstock="true"><path
         id="path1800"
         style="fill-rule:evenodd;stroke-width:0.625;stroke-linejoin:round;stroke:#000000;stroke-opacity:1;fill:#000000;fill-opacity:1"
         d="M 8.7185878,4.0337352 L -2.2072895,0.016013256 L 8.7185884,-4.0017078 C 6.9730900,-1.6296469 6.9831476,1.6157441 8.7185878,4.0337352 z "
         transform="scale(0.6) rotate(180) translate(0,0)" /></marker><marker
       inkscape:isstock="true"
       style="overflow:visible;"
       id="marker1714"
       refX="0.0"
       refY="0.0"
       orient="auto"
       inkscape:stockid="Arrow2Mend"
       inkscape:collect="always"><path
         transform="scale(0.6) rotate(180) translate(0,0)"
         d="M 8.7185878,4.0337352 L -2.2072895,0.016013256 L 8.7185884,-4.0017078 C 6.9730900,-1.6296469 6.9831476,1.6157441 8.7185878,4.0337352 z "
         style="fill-rule:evenodd;stroke-width:0.625;stroke-linejoin:round;stroke:#000000;stroke-opacity:1;fill:#000000;fill-opacity:1"
         id="path1712" /></marker><marker
       inkscape:isstock="true"
       style="overflow:visible;"
       id="marker1644"
       refX="0.0"
       refY="0.0"
       orient="auto"
       inkscape:stockid="Arrow2Mend"><path
         transform="scale(0.6) rotate(180) translate(0,0)"
         d="M 8.7185878,4.0337352 L -2.2072895,0.016013256 L 8.7185884,-4.0017078 C 6.9730900,-1.6296469 6.9831476,1.6157441 8.7185878,4.0337352 z "
         style="fill-rule:evenodd;stroke-width:0.625;stroke-linejoin:round;stroke:#000000;stroke-opacity:1;fill:#000000;fill-opacity:1"
         id="path1642" /></marker><marker
       inkscape:isstock="true"
       style="overflow:visible;"
       id="marker1580"
       refX="0.0"
       refY="0.0"
       orient="auto"
       inkscape:stockid="Arrow2Mend"><path
         transform="scale(0.6) rotate(180) translate(0,0)"
         d="M 8.7185878,4.0337352 L -2.2072895,0.016013256 L 8.7185884,-4.0017078 C 6.9730900,-1.6296469 6.9831476,1.6157441 8.7185878,4.0337352 z "
         style="fill-rule:evenodd;stroke-width:0.625;stroke-linejoin:round;stroke:#000000;stroke-opacity:1;fill:#000000;fill-opacity:1"
         id="path1578" /></marker><marker
       inkscape:isstock="true"
       style="overflow:visible;"
       id="marker1522"
       refX="0.0"
       refY="0.0"
       orient="auto"
       inkscape:stockid="Arrow2Mend"><path
         transform="scale(0.6) rotate(180) translate(0,0)"
         d="M 8.7185878,4.0337352 L -2.2072895,0.016013256 L 8.7185884,-4.0017078 C 6.9730900,-1.6296469 6.9831476,1.6157441 8.7185878,4.0337352 z "
         style="fill-rule:evenodd;stroke-width:0.625;stroke-linejoin:round;stroke:#000000;stroke-opacity:1;fill:#000000;fill-opacity:1"
         id="path1520" /></marker><marker
       inkscape:isstock="true"
       style="overflow:visible;"
       id="marker1470"
       refX="0.0"
       refY="0.0"
       orient="auto"
       inkscape:stockid="Arrow2Mend"><path
         transform="scale(0.6) rotate(180) translate(0,0)"
         d="M 8.7185878,4.0337352 L -2.2072895,0.016013256 L 8.7185884,-4.0017078 C 6.9730900,-1.6296469 6.9831476,1.6157441 8.7185878,4.0337352 z "
         style="fill-rule:evenodd;stroke-width:0.625;stroke-linejoin:round;stroke:#000000;stroke-opacity:1;fill:#000000;fill-opacity:1"
         id="path1468" /></marker><marker
       inkscape:isstock="true"
       style="overflow:visible;"
       id="marker1424"
       refX="0.0"
       refY="0.0"
       orient="auto"
       inkscape:stockid="Arrow2Mend"><path
         transform="scale(0.6) rotate(180) translate(0,0)"
         d="M 8.7185878,4.0337352 L -2.2072895,0.016013256 L 8.7185884,-4.0017078 C 6.9730900,-1.6296469 6.9831476,1.6157441 8.7185878,4.0337352 z "
         style="fill-rule:evenodd;stroke-width:0.625;stroke-linejoin:round;stroke:#000000;stroke-opacity:1;fill:#000000;fill-opacity:1"
         id="path1422" /></marker><marker
       inkscape:isstock="true"
       style="overflow:visible;"
       id="marker1384"
       refX="0.0"
       refY="0.0"
       orient="auto"
       inkscape:stockid="Arrow2Mend"><path
         transform="scale(0.6) rotate(180) translate(0,0)"
         d="M 8.7185878,4.0337352 L -2.2072895,0.016013256 L 8.7185884,-4.0017078 C 6.9730900,-1.6296469 6.9831476,1.6157441 8.7185878,4.0337352 z "
         style="fill-rule:evenodd;stroke-width:0.625;stroke-linejoin:round;stroke:#000000;stroke-opacity:1;fill:#000000;fill-opacity:1"
         id="path1382" /></marker><marker
       inkscape:isstock="true"
       style="overflow:visible;"
       id="marker1350"
       refX="0.0"
       refY="0.0"
       orient="auto"
       inkscape:stockid="Arrow2Mend"><path
         transform="scale(0.6) rotate(180) translate(0,0)"
         d="M 8.7185878,4.0337352 L -2.2072895,0.016013256 L 8.7185884,-4.0017078 C 6.9730900,-1.6296469 6.9831476,1.6157441 8.7185878,4.0337352 z "
         style="fill-rule:evenodd;stroke-width:0.625;stroke-linejoin:round;stroke:#000000;stroke-opacity:1;fill:#000000;fill-opacity:1"
         id="path1348" /></marker><marker
       inkscape:isstock="true"
       style="overflow:visible;"
       id="marker1322"
       refX="0.0"
       refY="0.0"
       orient="auto"
       inkscape:stockid="Arrow2Mend"><path
         transform="scale(0.6) rotate(180) translate(0,0)"
         d="M 8.7185878,4.0337352 L -2.2072895,0.016013256 L 8.7185884,-4.0017078 C 6.9730900,-1.6296469 6.9831476,1.6157441 8.7185878,4.0337352 z "
         style="fill-rule:evenodd;stroke-width:0.625;stroke-linejoin:round;stroke:#000000;stroke-opacity:1;fill:#000000;fill-opacity:1"
         id="path1320" /></marker><marker
       inkscape:isstock="true"
       style="overflow:visible;"
       id="marker1300"
       refX="0.0"
       refY="0.0"
       orient="auto"
       inkscape:stockid="Arrow2Mend"><path
         transform="scale(0.6) rotate(180) translate(0,0)"
         d="M 8.7185878,4.0337352 L -2.2072895,0.016013256 L 8.7185884,-4.0017078 C 6.9730900,-1.6296469 6.9831476,1.6157441 8.7185878,4.0337352 z "
         style="fill-rule:evenodd;stroke-width:0.625;stroke-linejoin:round;stroke:#000000;stroke-opacity:1;fill:#000000;fill-opacity:1"
         id="path1298" /></marker><marker
       inkscape:stockid="Arrow2Mend"
       orient="auto"
       refY="0.0"
       refX="0.0"
       id="Arrow2Mend"
       style="overflow:visible;"
       inkscape:isstock="true"
       inkscape:collect="always"><path
         id="path1043"
         style="fill-rule:evenodd;stroke-width:0.625;stroke-linejoin:round;stroke:#000000;stroke-opacity:1;fill:#000000;fill-opacity:1"
         d="M 8.7185878,4.0337352 L -2.2072895,0.016013256 L 8.7185884,-4.0017078 C 6.9730900,-1.6296469 6.9831476,1.6157441 8.7185878,4.0337352 z "
         transform="scale(0.6) rotate(180) translate(0,0)" /></marker></defs><sodipodi:namedview
     pagecolor="#ffffff"
     bordercolor="#666666"
     borderopacity="1"
     objecttolerance="10"
     gridtolerance="10"
     guidetolerance="10"
     inkscape:pageopacity="0"
     inkscape:pageshadow="2"
     inkscape:window-width="2560"
     inkscape:window-height="1387"
     id="namedview4"
     showgrid="false"
     fit-margin-top="0"
     fit-margin-left="0"
     fit-margin-right="0"
     fit-margin-bottom="0"
     inkscape:zoom="3.0490196"
     inkscape:cx="258.61972"
     inkscape:cy="205.60865"
     inkscape:window-x="1912"
     inkscape:window-y="-8"
     inkscape:window-maximized="1"
     inkscape:current-layer="g10" /><g
     id="g10"
     inkscape:groupmode="layer"
     inkscape:label="labFinalPV"
     transform="matrix(1.3333333,0,0,-1.3333333,-489.44363,793.27265)"><text
       transform="matrix(0.99882779,0,-0.2682647,-1.0011736,0,0)"
       style="font-variant:normal;font-weight:normal;font-stretch:normal;font-size:14.29222679px;font-family:'Times New Roman';-inkscape-font-specification:TimesNewRoman;writing-mode:lr-tb;fill:#000000;fill-opacity:1;fill-rule:nonzero;stroke:none;stroke-width:0.96479332"
       id="text14"
       x="592.26691"
       y="-305.2178"><tspan
         x="592.26691 596.23083"
         y="-305.2178"
         sodipodi:role="line"
         id="tspan12"
         style="stroke-width:0.96479332">t </tspan></text>
<text
       transform="matrix(0.72488132,-0.41846376,-0.64553299,-0.64559462,518.16848,365.0296)"
       style="font-variant:normal;font-weight:normal;font-stretch:normal;font-size:16.22597122px;font-family:'Times New Roman';-inkscape-font-specification:TimesNewRoman;writing-mode:lr-tb;fill:#000000;fill-opacity:1;fill-rule:nonzero;stroke:none"
       id="text18"><tspan
         x="0 9.4097404"
         y="0"
         sodipodi:role="line"
         id="tspan16">L </tspan></text>
<text
       transform="matrix(1.032419,0,-0.25953634,-0.968599,0,0)"
       style="font-variant:normal;font-weight:normal;font-stretch:normal;font-size:14.77288246px;font-family:'Times New Roman';-inkscape-font-specification:TimesNewRoman;writing-mode:lr-tb;fill:#000000;fill-opacity:1;fill-rule:nonzero;stroke:none;stroke-width:0.99723989"
       id="text22"
       x="225.51463"
       y="-516.4303"><tspan
         x="225.51463 230.75813"
         y="-516.4303"
         sodipodi:role="line"
         id="tspan20"
         style="stroke-width:0.99723989">r </tspan></text>
<text
       transform="matrix(1.0590051,0,-0.25881999,-0.96592557,642.9409,379.0226)"
       style="font-variant:normal;font-weight:normal;font-stretch:normal;font-size:14.81377029px;font-family:'Times New Roman';-inkscape-font-specification:TimesNewRoman;writing-mode:lr-tb;fill:#000000;fill-opacity:1;fill-rule:nonzero;stroke:none"
       id="text26"><tspan
         x="0"
         y="0"
         id="tspan24">P</tspan></text>
<g
       id="g28"
       transform="translate(377,528.9)"><path
         d="M 0,0 1.5,-9.3 H -1.4 L 0,0 m 0,-52.9 -1.4,9.4 H 1.5 L 0,-52.9"
         style="fill:none;stroke:#000000;stroke-width:0.50999999;stroke-linecap:butt;stroke-linejoin:miter;stroke-miterlimit:10;stroke-dasharray:none;stroke-opacity:1"
         id="path30"
         inkscape:connector-curvature="0" /></g><g
       id="g36"
       transform="translate(666.3,318.1)"><path
         d="M 0,0 -1.5,7.7 H 1.4 L 0,0 m 0,-5.9 1.4,-7.6 H -1.5 L 0,-5.9"
         style="fill:none;stroke:#000000;stroke-width:0.50999999;stroke-linecap:butt;stroke-linejoin:miter;stroke-miterlimit:10;stroke-dasharray:none;stroke-opacity:1"
         id="path38"
         inkscape:connector-curvature="0" /></g><g
       id="g40"
       transform="translate(392.7,433.4)"><path
         d="M 0,0 7.4,-2.5 5.9,-5 0,0 m 254.6,-146.9 -7.3,2.6 1.4,2.5 5.9,-5.1"
         style="fill:none;stroke:#000000;stroke-width:0.50999999;stroke-linecap:butt;stroke-linejoin:miter;stroke-miterlimit:10;stroke-dasharray:none;stroke-opacity:1"
         id="path42"
         inkscape:connector-curvature="0" /></g><g
       id="g44"
       transform="translate(392.7843,581.8964)"><path
         d="M 0,0 V -105.824"
         style="fill:none;stroke:#000000;stroke-width:0.50999998;stroke-linecap:square;stroke-linejoin:miter;stroke-miterlimit:10;stroke-dasharray:3.05999984, 3.05999984000000014;stroke-dashoffset:0;stroke-opacity:1"
         id="path46"
         inkscape:connector-curvature="0" /></g><g
       id="g48"
       transform="translate(389.1,528.9)"><path
         d="M 0,0 H -21.1 M 0,-52.9 h -21.1 m 9,52.9 v -52.9"
         style="fill:none;stroke:#000000;stroke-width:0.50999999;stroke-linecap:round;stroke-linejoin:round;stroke-miterlimit:10;stroke-dasharray:none;stroke-opacity:1"
         id="path50"
         inkscape:connector-curvature="0" /></g><g
       id="g52"
       transform="translate(649.8,327.6)"><path
         d="M 0,0 22.8,-13.2 M 0,-5.9 22.8,-19 m -6.3,9.5 V 5.2 m 0,-20.6 v -14.7"
         style="fill:none;stroke:#000000;stroke-width:0.50999999;stroke-linecap:round;stroke-linejoin:round;stroke-miterlimit:10;stroke-dasharray:none;stroke-opacity:1"
         id="path54"
         inkscape:connector-curvature="0" /></g><g
       id="g56"
       transform="translate(392.7,467.2)"><path
         d="m 0,0 v -41.1 m 254.6,-105.8 v -41.2 M 0,-33.8 254.6,-180.7"
         style="fill:none;stroke:#000000;stroke-width:0.50999999;stroke-linecap:round;stroke-linejoin:round;stroke-miterlimit:10;stroke-dasharray:none;stroke-opacity:1"
         id="path58"
         inkscape:connector-curvature="0" /></g><path
       inkscape:connector-curvature="0"
       id="path974"
       d="m 647.3,393.7 v 39.27828"
       style="fill:none;fill-opacity:1;stroke:#000000;stroke-width:0.75;stroke-linecap:square;stroke-linejoin:round;stroke-miterlimit:4;stroke-dasharray:none;stroke-opacity:1;marker-end:url(#marker4208)"
       sodipodi:nodetypes="cc" /><path
       inkscape:connector-curvature="0"
       id="path972"
       d="m 651.2,395.1 13.01297,43.96498"
       style="fill:none;fill-opacity:1;stroke:#000000;stroke-width:0.75;stroke-linecap:square;stroke-linejoin:round;stroke-miterlimit:4;stroke-dasharray:none;stroke-opacity:1;marker-end:url(#marker4024)"
       sodipodi:nodetypes="cc" /><path
       inkscape:connector-curvature="0"
       id="path970"
       d="m 654.5,394.5 24.24336,41.90414"
       style="fill:none;fill-opacity:1;stroke:#000000;stroke-width:0.75;stroke-linecap:square;stroke-linejoin:round;stroke-miterlimit:4;stroke-dasharray:none;stroke-opacity:1;marker-end:url(#marker3846)"
       sodipodi:nodetypes="cc" /><path
       inkscape:connector-curvature="0"
       id="path968"
       d="m 656.7,391.9 31.57375,33.45201"
       style="fill:none;fill-opacity:1;stroke:#000000;stroke-width:0.75;stroke-linecap:square;stroke-linejoin:round;stroke-miterlimit:4;stroke-dasharray:none;stroke-opacity:1;marker-end:url(#marker3674)"
       sodipodi:nodetypes="cc" /><path
       inkscape:connector-curvature="0"
       id="path966"
       d="m 657.5,387.9 33.89327,19.61946"
       style="fill:none;fill-opacity:1;stroke:#000000;stroke-width:0.75;stroke-linecap:square;stroke-linejoin:round;stroke-miterlimit:4;stroke-dasharray:none;stroke-opacity:1;marker-end:url(#marker3508)"
       sodipodi:nodetypes="cc" /><path
       inkscape:connector-curvature="0"
       id="path964"
       d="m 656.7,382.9 30.83222,3.05786"
       style="fill:none;fill-opacity:1;stroke:#000000;stroke-width:0.75;stroke-linecap:square;stroke-linejoin:round;stroke-miterlimit:4;stroke-dasharray:none;stroke-opacity:1;marker-end:url(#marker3348)"
       sodipodi:nodetypes="cc" /><path
       inkscape:connector-curvature="0"
       id="path962"
       d="m 654.5,377.8 23.54762,-13.55423"
       style="fill:none;fill-opacity:1;stroke:#000000;stroke-width:0.75;stroke-linecap:square;stroke-linejoin:round;stroke-miterlimit:4;stroke-dasharray:none;stroke-opacity:1;marker-end:url(#marker3194)"
       sodipodi:nodetypes="cc" /><path
       inkscape:connector-curvature="0"
       id="path960"
       d="m 651.2,373.4 12.81729,-28.47152"
       style="fill:none;fill-opacity:1;stroke:#000000;stroke-width:0.75;stroke-linecap:square;stroke-linejoin:round;stroke-miterlimit:4;stroke-dasharray:none;stroke-opacity:1;marker-end:url(#marker3046)"
       sodipodi:nodetypes="cc" /><path
       inkscape:connector-curvature="0"
       id="path958"
       d="M 647.3,370.2 V 331.12934"
       style="fill:none;fill-opacity:1;stroke:#000000;stroke-width:0.75;stroke-linecap:square;stroke-linejoin:round;stroke-miterlimit:4;stroke-dasharray:none;stroke-opacity:1;marker-end:url(#marker4398)"
       sodipodi:nodetypes="cc" /><path
       inkscape:connector-curvature="0"
       id="path956"
       d="M 392.7,584.8 377.5,576"
       style="fill:none;fill-opacity:1;stroke:#000000;stroke-width:0.75;stroke-linecap:square;stroke-linejoin:round;stroke-miterlimit:4;stroke-dasharray:none;stroke-opacity:1;marker-end:url(#marker1644)" /><path
       inkscape:connector-curvature="0"
       id="path954"
       d="m 418.2,570.1 -15.3,-8.8"
       style="fill:none;fill-opacity:1;stroke:#000000;stroke-width:0.75;stroke-linecap:square;stroke-linejoin:round;stroke-miterlimit:4;stroke-dasharray:none;stroke-opacity:1;marker-end:url(#marker1580)" /><path
       inkscape:connector-curvature="0"
       id="path952"
       d="m 443.6,555.4 -15.2,-8.8"
       style="fill:none;fill-opacity:1;stroke:#000000;stroke-width:0.75;stroke-linecap:square;stroke-linejoin:round;stroke-miterlimit:4;stroke-dasharray:none;stroke-opacity:1;marker-end:url(#marker1522)" /><path
       inkscape:connector-curvature="0"
       id="path950"
       d="m 469.1,540.7 -15.3,-8.8"
       style="fill:none;fill-opacity:1;stroke:#000000;stroke-width:0.75;stroke-linecap:square;stroke-linejoin:round;stroke-miterlimit:4;stroke-dasharray:none;stroke-opacity:1;marker-end:url(#marker1470)" /><path
       inkscape:connector-curvature="0"
       id="path948"
       d="m 494.6,526 -15.3,-8.8"
       style="fill:none;fill-opacity:1;stroke:#000000;stroke-width:0.75;stroke-linecap:square;stroke-linejoin:round;stroke-miterlimit:4;stroke-dasharray:none;stroke-opacity:1;marker-end:url(#marker1424)" /><path
       inkscape:connector-curvature="0"
       id="path946"
       d="m 520,511.3 -15.3,-8.8"
       style="fill:none;fill-opacity:1;stroke:#000000;stroke-width:0.75;stroke-linecap:square;stroke-linejoin:round;stroke-miterlimit:4;stroke-dasharray:none;stroke-opacity:1;marker-end:url(#marker1384)" /><path
       inkscape:connector-curvature="0"
       id="path944"
       d="m 545.5,496.6 -15.3,-8.8"
       style="fill:none;fill-opacity:1;stroke:#000000;stroke-width:0.75;stroke-linecap:square;stroke-linejoin:round;stroke-miterlimit:4;stroke-dasharray:none;stroke-opacity:1;marker-end:url(#marker1350)" /><path
       inkscape:connector-curvature="0"
       id="path942"
       d="m 570.9,481.9 -15.2,-8.8"
       style="fill:none;fill-opacity:1;stroke:#000000;stroke-width:0.75;stroke-linecap:square;stroke-linejoin:round;stroke-miterlimit:4;stroke-dasharray:none;stroke-opacity:1;marker-end:url(#marker1322)" /><path
       inkscape:connector-curvature="0"
       id="path940"
       d="m 596.4,467.2 -15.3,-8.8"
       style="fill:none;fill-opacity:1;stroke:#000000;stroke-width:0.75;stroke-linecap:square;stroke-linejoin:round;stroke-miterlimit:4;stroke-dasharray:none;stroke-opacity:1;marker-end:url(#marker1300)" /><path
       inkscape:connector-curvature="0"
       id="path938"
       d="m 621.8,452.5 -15.2,-8.8"
       style="fill:none;fill-opacity:1;stroke:#000000;stroke-width:0.75;stroke-linecap:square;stroke-linejoin:round;stroke-miterlimit:4;stroke-dasharray:none;stroke-opacity:1;marker-end:url(#Arrow2Mend)" /><path
       inkscape:connector-curvature="0"
       id="path936"
       d="M 647.3,437.8 632,429"
       style="fill:none;fill-opacity:1;stroke:#000000;stroke-width:0.75;stroke-linecap:square;stroke-linejoin:round;stroke-miterlimit:4;stroke-dasharray:none;stroke-opacity:1;marker-end:url(#marker1714)" /><path
       inkscape:connector-curvature="0"
       id="path934"
       d="m 392.7,473.1 -15.2,-8.8"
       style="fill:none;fill-opacity:1;stroke:#000000;stroke-width:0.75;stroke-linecap:square;stroke-linejoin:round;stroke-miterlimit:4;stroke-dasharray:none;stroke-opacity:1;marker-end:url(#marker2892)" /><path
       inkscape:connector-curvature="0"
       id="path932"
       d="m 418.2,458.4 -15.3,-8.8"
       style="fill:none;fill-opacity:1;stroke:#000000;stroke-width:0.75;stroke-linecap:square;stroke-linejoin:round;stroke-miterlimit:4;stroke-dasharray:none;stroke-opacity:1;marker-end:url(#marker1802)" /><path
       inkscape:connector-curvature="0"
       id="path930"
       d="m 443.6,443.7 -15.2,-8.8"
       style="fill:none;fill-opacity:1;stroke:#000000;stroke-width:0.75;stroke-linecap:square;stroke-linejoin:round;stroke-miterlimit:4;stroke-dasharray:none;stroke-opacity:1;marker-end:url(#marker1884)" /><path
       inkscape:connector-curvature="0"
       id="path928"
       d="m 469.1,429 -15.3,-8.8"
       style="fill:none;fill-opacity:1;stroke:#000000;stroke-width:0.75;stroke-linecap:square;stroke-linejoin:round;stroke-miterlimit:4;stroke-dasharray:none;stroke-opacity:1;marker-end:url(#marker1972)" /><path
       inkscape:connector-curvature="0"
       id="path926"
       d="m 494.6,414.3 -15.3,-8.8"
       style="fill:none;fill-opacity:1;stroke:#000000;stroke-width:0.75;stroke-linecap:square;stroke-linejoin:round;stroke-miterlimit:4;stroke-dasharray:none;stroke-opacity:1;marker-end:url(#marker2066)" /><path
       inkscape:connector-curvature="0"
       id="path924"
       d="m 520,399.6 -15.3,-8.8"
       style="fill:none;fill-opacity:1;stroke:#000000;stroke-width:0.75;stroke-linecap:square;stroke-linejoin:round;stroke-miterlimit:4;stroke-dasharray:none;stroke-opacity:1;marker-end:url(#marker2166)" /><path
       inkscape:connector-curvature="0"
       id="path922"
       d="m 545.5,384.9 -15.3,-8.8"
       style="fill:none;fill-opacity:1;stroke:#000000;stroke-width:0.75;stroke-linecap:square;stroke-linejoin:round;stroke-miterlimit:4;stroke-dasharray:none;stroke-opacity:1;marker-end:url(#marker2272)" /><path
       inkscape:connector-curvature="0"
       id="path920"
       d="m 570.9,370.2 -15.2,-8.8"
       style="fill:none;fill-opacity:1;stroke:#000000;stroke-width:0.75;stroke-linecap:square;stroke-linejoin:round;stroke-miterlimit:4;stroke-dasharray:none;stroke-opacity:1;marker-end:url(#marker2384)" /><path
       inkscape:connector-curvature="0"
       id="path918"
       d="m 596.4,355.5 -15.3,-8.8"
       style="fill:none;fill-opacity:1;stroke:#000000;stroke-width:0.75;stroke-linecap:square;stroke-linejoin:round;stroke-miterlimit:4;stroke-dasharray:none;stroke-opacity:1;marker-end:url(#marker2502)" /><path
       inkscape:connector-curvature="0"
       id="path916"
       d="M 621.8,340.8 606.6,332"
       style="fill:none;fill-opacity:1;stroke:#000000;stroke-width:0.75;stroke-linecap:square;stroke-linejoin:round;stroke-miterlimit:4;stroke-dasharray:none;stroke-opacity:1;marker-end:url(#marker2626)" /><path
       inkscape:connector-curvature="0"
       id="path914"
       d="M 647.3,326.1 632,317.3"
       style="fill:none;fill-opacity:1;stroke:#000000;stroke-width:0.75;stroke-linecap:square;stroke-linejoin:round;stroke-miterlimit:4;stroke-dasharray:none;stroke-opacity:1;marker-end:url(#marker2756)" /><path
       inkscape:connector-curvature="0"
       id="path912"
       d="M 590.9,414.6 616.1,400"
       style="fill:none;fill-opacity:1;stroke:#000000;stroke-width:0.75000002;stroke-linecap:square;stroke-linejoin:round;stroke-miterlimit:4;stroke-dasharray:4.50000011,4.50000011;stroke-opacity:1;marker-end:url(#marker5614);stroke-dashoffset:0" /><path
       inkscape:connector-curvature="0"
       id="path910"
       d="M 583.7,407 V 367.9307"
       style="fill:none;fill-opacity:1;stroke:#000000;stroke-width:0.75;stroke-linecap:square;stroke-linejoin:round;stroke-miterlimit:4;stroke-dasharray:4.50000011, 4.50000011;stroke-dashoffset:0;stroke-opacity:1;marker-end:url(#marker7398)"
       sodipodi:nodetypes="cc" /><path
       inkscape:connector-curvature="0"
       id="path908"
       d="m 593.8,424.6 34.04762,19.55639"
       style="fill:none;fill-opacity:1;stroke:#000000;stroke-width:0.75;stroke-linecap:square;stroke-linejoin:round;stroke-miterlimit:4;stroke-dasharray:4.50000011, 4.50000011;stroke-dashoffset:0;stroke-opacity:1;marker-end:url(#marker5816)"
       sodipodi:nodetypes="cc" /><path
       inkscape:connector-curvature="0"
       id="path906"
       d="M 520,443.7 V 404.67418"
       style="fill:none;fill-opacity:1;stroke:#000000;stroke-width:0.75;stroke-linecap:square;stroke-linejoin:round;stroke-miterlimit:4;stroke-dasharray:4.50000011, 4.50000011;stroke-dashoffset:0;stroke-opacity:1;marker-end:url(#marker6458)"
       sodipodi:nodetypes="cc" /><path
       inkscape:connector-curvature="0"
       id="path904"
       d="m 527.2,451.3 25.2,-14.6"
       style="fill:none;fill-opacity:1;stroke:#000000;stroke-width:0.75000002;stroke-linecap:square;stroke-linejoin:round;stroke-miterlimit:4;stroke-dasharray:4.50000011,4.50000011;stroke-opacity:1;marker-end:url(#marker6238);stroke-dashoffset:0" /><path
       inkscape:connector-curvature="0"
       id="path902"
       d="m 530.2,461.3 33.70846,19.70859"
       style="fill:none;fill-opacity:1;stroke:#000000;stroke-width:0.75;stroke-linecap:square;stroke-linejoin:round;stroke-miterlimit:4;stroke-dasharray:4.50000011, 4.50000011;stroke-dashoffset:0;stroke-opacity:1;marker-end:url(#marker6024)"
       sodipodi:nodetypes="cc" /><path
       inkscape:connector-curvature="0"
       id="path900"
       d="M 456.4,480.4 V 441.4307"
       style="fill:none;fill-opacity:1;stroke:#000000;stroke-width:0.75;stroke-linecap:square;stroke-linejoin:round;stroke-miterlimit:4;stroke-dasharray:4.50000011, 4.50000011;stroke-dashoffset:0;stroke-opacity:1;marker-end:url(#marker6684)"
       sodipodi:nodetypes="cc" /><path
       inkscape:connector-curvature="0"
       id="path898"
       d="m 463.6,488 25.2,-14.5"
       style="fill:none;fill-opacity:1;stroke:#000000;stroke-width:0.75000002;stroke-linecap:square;stroke-linejoin:round;stroke-miterlimit:4;stroke-dasharray:4.50000011,4.50000011;stroke-opacity:1;marker-end:url(#marker6916);stroke-dashoffset:0" /><path
       inkscape:connector-curvature="0"
       id="path62"
       d="m 466.6,498.1 33.70846,19.47813"
       style="fill:none;fill-opacity:1;stroke:#000000;stroke-width:0.75;stroke-linecap:square;stroke-linejoin:round;stroke-miterlimit:4;stroke-dasharray:4.50000011, 4.50000011;stroke-dashoffset:0;stroke-opacity:1;marker-end:url(#marker7154)"
       sodipodi:nodetypes="cc" /><g
       id="g64"
       transform="translate(377,528.9)"><path
         d="M 0,0 1.5,-9.3 H -1.4 M 0,-52.9 -1.4,-43.5 H 1.5"
         style="fill:#000000;fill-opacity:1;fill-rule:nonzero;stroke:none"
         id="path66"
         inkscape:connector-curvature="0" /></g><g
       id="g68"
       transform="translate(666.3,318.1)"><path
         d="M 0,0 -1.5,7.7 H 1.4 M 0,-5.9 1.4,-13.5 h -2.9"
         style="fill:#000000;fill-opacity:1;fill-rule:nonzero;stroke:none"
         id="path70"
         inkscape:connector-curvature="0" /></g><g
       id="g72"
       transform="translate(392.7,433.4)"><path
         d="M 0,0 7.4,-2.5 5.9,-5 m 248.7,-141.9 -7.3,2.6 1.4,2.5"
         style="fill:#000000;fill-opacity:1;fill-rule:nonzero;stroke:none"
         id="path74"
         inkscape:connector-curvature="0" /></g><g
       id="g76"
       transform="translate(683.3,444.3)"
       style="stroke-width:0.75000002;stroke-miterlimit:4;stroke-dasharray:none"><path
         d="M 0,0 -254.6,147 M -36,-121.1 -290.6,25.8 m 254.6,-146.9 3.1,1.9 3.1,2.1 3.1,2.4 3.1,2.5 3,2.8 3,2.9 2.9,3.1 2.8,3.2 2.7,3.4 2.6,3.5 2.5,3.6 2.4,3.7 2.2,3.9 2.2,3.8 1.9,4 1.8,4 1.7,4 1.5,4.1 1.3,4 1.1,4.1 1,4 0.7,3.9 0.6,3.9 0.4,3.8 0.2,3.7 v 3.7 l -0.2,3.5 -0.4,3.3 -0.6,3.3 -0.7,3 -1,2.9 -1.1,2.8 -1.3,2.5 -1.5,2.3 -1.7,2.2 -1.8,1.9 -1.9,1.7 -2.2,1.4 -2.2,1.2 -2.4,1 -2.5,0.7 -2.6,0.5 -2.7,0.3 h -2.8 l -2.9,-0.3 -3,-0.5 -3,-0.7 -3.1,-1 -3.1,-1.3 -3.1,-1.4 -3.1,-1.7 m 0,0 -254.6,146.9 m 36,3.6 -1.7,0.9 -2.3,1 -2.6,0.7 -2.6,0.5 -2.7,0.2 h -2.8 l -2.9,-0.2 -2.9,-0.5 -3,-0.8 -3.1,-1 -3.1,-1.2 -3.1,-1.5 -3.2,-1.7 M -36,-3.5 v -5.9 m 0,0 -254.6,146.9 m 0,5.9 v -5.9 M -36,-115.2 v -5.9 m 0,111.7 3,1.6 3,1.4 2.9,1.1 3,0.9 2.8,0.7 2.8,0.4 2.8,0.1 2.6,-0.1 2.5,-0.3 2.5,-0.6 2.3,-0.9 2.2,-1.1 2,-1.3 1.9,-1.6 1.8,-1.8 1.6,-2.1 1.4,-2.2 1.2,-2.4 1.1,-2.7 0.9,-2.8 0.6,-3 0.5,-3.1 0.3,-3.3 0.1,-3.4 -0.1,-3.5 -0.3,-3.6 -0.5,-3.7 -0.6,-3.8 -0.9,-3.8 -1.1,-3.8 -1.2,-3.9 -1.4,-3.9 -1.6,-3.8 -1.8,-3.8 -1.9,-3.8 -2,-3.7 -2.2,-3.7 -2.3,-3.5 -2.5,-3.4 -2.5,-3.3 -2.6,-3.2 -2.8,-3 -2.8,-2.8 -2.8,-2.7 -3,-2.5 -2.9,-2.2 -3,-2.1 -3,-1.8 m 0,0 -254.6,146.9 m 45.9,79.4 v 0 l -0.1,-3.5 -0.3,-3.6 -0.5,-3.7 -0.7,-3.8 -0.9,-3.8 -1,-3.9 -1.3,-3.8 -1.4,-3.9 -1.6,-3.9 -1.7,-3.8 -1.9,-3.8 -2.1,-3.7 -2.2,-3.6 -2.3,-3.5 -2.4,-3.5 -2.6,-3.3 -2.6,-3.1 -2.7,-3 -2.8,-2.9 -2.9,-2.6 -2.9,-2.5 -3,-2.3 -3,-2 -3,-1.9 m 0,0 v -5.9"
         style="fill:none;stroke:#000000;stroke-width:1.12500003;stroke-linecap:round;stroke-linejoin:round;stroke-miterlimit:4;stroke-dasharray:none;stroke-opacity:1"
         id="path78"
         inkscape:connector-curvature="0" /></g><circle
       style="opacity:1;fill:#000000;fill-opacity:1;stroke:none;stroke-width:0.50999999;stroke-linecap:square;stroke-linejoin:miter;stroke-miterlimit:10;stroke-dasharray:3.05999985, 3.05999985;stroke-dashoffset:0;stroke-opacity:1"
       id="path894"
       cx="392.74896"
       cy="-528.8833"
       r="1.3045098"
       transform="scale(1,-1)" /></g></svg>